<?xml version="1.0" standalone="no"?><!DOCTYPE svg PUBLIC "-//W3C//DTD SVG 1.1//EN" "http://www.w3.org/Graphics/SVG/1.1/DTD/svg11.dtd"><svg t="1585018575832" class="icon" viewBox="0 0 1024 1024" version="1.1" xmlns="http://www.w3.org/2000/svg" p-id="2393" xmlns:xlink="http://www.w3.org/1999/xlink" width="200" height="200"><defs><style type="text/css"></style></defs><path d="M513.024 188.416c-62.464 0-113.664 51.2-113.664 113.664V327.68h227.328v-25.6c0-62.464-51.2-113.664-113.664-113.664z" p-id="2394"></path><path d="M512 0C229.376 0 0 229.376 0 512s229.376 512 512 512 512-229.376 512-512S794.624 0 512 0z m216.064 716.8H296.96c-30.72 0-55.296-27.648-51.2-58.368l40.96-312.32c1.024-10.24 10.24-17.408 20.48-17.408h71.68v-25.6c0-73.728 60.416-134.144 134.144-134.144 73.728 0 134.144 60.416 134.144 134.144v25.6H716.8c10.24 0 19.456 7.168 20.48 17.408l40.96 312.32c5.12 30.72-19.456 58.368-50.176 58.368z" p-id="2395"></path></svg>